<svg xmlns="http://www.w3.org/2000/svg" version="1.1" xmlns:xlink="http://www.w3.org/1999/xlink" xmlns:svgjs="http://svgjs.dev/svgjs" width="1500" height="1687" viewBox="0 0 1500 1687"><g transform="matrix(1,0,0,1,0.00011015625000254659,0)"><svg viewBox="0 0 320 360" data-background-color="#ffffff" preserveAspectRatio="xMidYMid meet" height="1687" width="1500" xmlns="http://www.w3.org/2000/svg" xmlns:xlink="http://www.w3.org/1999/xlink"><g id="tight-bounds" transform="matrix(1,0,0,1,0.000023499999997511622,0)"><svg viewBox="0 0 320 360" height="360" width="320"><g><svg></svg></g><g><svg viewBox="0 0 320 360" height="360" width="320"><g><path transform="translate(-74.99272,-51.79039) scale(4.65793,4.65793)" d="M20.6 59.9l0.8 1-0.4-1.3c-0.1-0.6-0.8 0.1-0.4 0.3M21.5 59.3c0.3 0.5 0.6 1 0.6 1.5 0 0.7 0.6 1 1.1 1.2-0.7-0.8-1.1-3-1.7-2.7M59.9 16.9c1.7 0 3.3-0.2 5.1 0.2 4.4 1.1 8.1 3.3 10.6 6.4l7 11.2c0.3 2.8 0.9 5.9 0.8 9.3 0.7 0 0.6-1 1.4-1.2-0.8 2-1.2 4.5-1.4 7.4-0.5-1.6 0-4 0.1-5.3-0.7 1.1-1.1 0.3-1.1-0.2 0.1-0.8-0.3-0.7-0.6-1-1.1-1-1.8-2.1-2.6-3.8 0.5-1.3 0.6-3.2-1-4.2-0.5-0.3-1.1-0.8-1.4-1.6-0.4-1.1-1.1-2.4-0.9-4.1 0.1-0.5-1.5 1.1-2.4 0.4-3.9-2.7-7.8-5.8-12.5-8.4-2.5 0-4.3-0.9-5.2-2-0.8-1-0.2-2.3 1-2.4 0.7 0 1.5-0.2 2.1 0.2 0.1-0.4 0.5-0.9 1-0.9M50 14.6l0.2 0.1c1 0.2 1.5 1.6 2.6 1.1 0 0.7 0.1 1.4-0.1 1.9-0.3 0.8-1.2 0.8-1.9 0.8-6.7-0.4-10.6 2.4-14.7 4.8-1.1 0.7-2.3 1.2-3.2 2.1-4.3 4-9 7.7-10.1 15.1l-0.9 8.2c-0.1 0.9-1.1 1.8-0.9 2.9l0.7 4.9c-0.7-0.7-1.1 0.2-0.9 0.6 0.1 0.3 0.5 1.3 1.1 0.4 0.8 1.5 1.6 4.4 2.7 5.7 3.4 4 7.8 7.6 11.4 11.2 0.9-0.2 1.6-0.2 1.8-0.8 0.3 0.6-0.3 1.2-0.8 1.3 1.6 1 3.4 1.9 5.8 2.1 3.1 0.2 6 0.7 8.7 1.4 1.4-0.4 2.8-0.6 4.3-0.7 0.5 0 0.8-0.8 1.4-1l0.1-1c0.6 0.9 0.5-0.3 0.1-0.9 0.7 0.6 0.9 1.1 1.2 1.5 0-0.3 0.8-1.4 0.8-0.1l0.2-1.3c0.3-0.2 0.4 1.1 0.7 0.2 0.3-0.9 0.9-0.2 1.5-0.5-0.2 0.4-0.1 1.2 0.6 0.7l0.8-0.7c0.5 1.2 1.3 0.7 1.7 0.5 4.4-2.8 8.8-6.1 13-9.4l-0.1 1.3 0.5-1.6c0.5 0.5 0.9 0.1 1.1-0.2 0.6-1 1.4-2 2.7-2.9-1.6 4.3-3.5 7.7-5.9 10.5l-1 1.2c0 0.7-0.2 1.6-1 1.7-0.4 0.1-1.2-0.2-1.8 0.4-0.3 0.4 0.7 1.2-0.1 0.6-0.7-0.5-1.4 0-2.2 0.2-0.6 0.2 0.4 0.8 0.6 1.2 0.2 0.4 0.4 0.8 0.3 1.3l-1.1-1.2c-1.3 0.7-2.1 2-3.2 3-0.5 0.4-0.3 1.1-0.3 1.7-0.7 0-1.5-0.2-1.9 0.2-0.3 0.4-0.2 1-0.2 1.6-1-0.1-1.1-1.6-2-1.3-0.9 0.2-1.9 0.3-2.7 0.8 0.6 1.2-1 0.5-0.8 0.7-1.5-0.9-2.8-1.6-4.4-1-3.4-1.1-7.6-0.6-10.7-0.2 0-0.5 0.1-1-0.1-1.1-0.2 0.5-0.8 0.3-0.7 0.3-1.9-1.3-3.8-2.1-5.8-3.2-1.8 0.2-3.5-0.7-4-1.2-1.4-1.3-3-0.6-4.3-0.9-2.8-0.7-3.8-3.6-4.1-5.6-0.2-1-1-1.4-1.3-1.3-1.3-4.2-3.3-8-4.9-11.9-0.4-1-0.3-2-0.3-3.1 0.5 0.2 1 0.1 0.9-0.6-0.5-3.3-1.7-5.8-3-8.2 0.7-3.4 0.8-7.4 2.4-10.4 1.4-2.7 4-4.1 5.8-6.4 0.6-0.8 0.6-1.9 1.2-2.6 2-2 4-4.1 6.2-5.9 1-0.8 2.2 0 3.7-0.3 0.5-1.8 2.5-3.4 4.4-2.9 0.8 0.2 2.4-1.9 2.9-2.1 0.8-0.3 0.4 0.8 0.4 1.5 1.9-1.5 4.5-2.3 6.9-3.2" fill="#000000" fill-rule="nonzero" stroke="none" stroke-width="1" stroke-linecap="butt" stroke-linejoin="miter" stroke-miterlimit="10" stroke-dasharray="" stroke-dashoffset="0" font-family="none" font-weight="none" font-size="none" text-anchor="none" style="mix-blend-mode: normal" data-fill-palette-color="tertiary"></path></g><g transform="matrix(1,0,0,1,70,90)"><svg viewBox="0 0 180 180" height="180" width="180"><g><svg viewBox="0 0 180 180" height="180" width="180"><g><svg viewBox="0 0 180 180" height="180" width="180"><g id="textblocktransform"><svg viewBox="0 0 180 180" height="180" width="180" id="textblock"><g><svg viewBox="0 0 180 180" height="180" width="180"><g transform="matrix(1,0,0,1,51.59520047388217,47.57359312880715)"><svg viewBox="0 0 76.80959905223565 84.8528137423857" height="84.8528137423857" width="76.80959905223565"><g id="icon-0"><svg xmlns="http://www.w3.org/2000/svg" xmlns:xlink="http://www.w3.org/1999/xlink" xmlns:a="http://ns.adobe.com/AdobeSVGViewerExtensions/3.0/" version="1.1" x="0" y="0" viewBox="-0.00033904640955062515 0.00001193890938059228 67.88535005085217 74.99405067567467" enable-background="new -12.156 -9.25 93 93" xml:space="preserve" height="84.8528137423857" width="76.80959905223565" class="icon-xg-0" data-fill-palette-color="accent" id="xg-0"><path d="M67.792 39.664C67.097 28.267 62.478 17.294 55.28 9.92c-5.333-5.763-12.167-9.524-19.92-9.885C25.905-0.414 17.843 3.49 11.879 9.931 7.17 14.735 3.69 21.078 1.75 28.157c-3.251 11.86-2.152 25.74 4.805 37.796 4.237 6.597 6.517 8.713 9.598 8.299 1.415 0.197 2.911-0.254 4.821-1.176 1.308-0.631 2.022-1.325 0.693-3.406-6.158-9.575-10.791-16.728-8.924-32.608 0.03-0.265 0.07-0.521 0.107-0.775 1.993-14.28 11.651-21.763 21.403-22.113 11.114 0.377 21.86 10.075 20.973 29.551-0.011 0.244-0.024 0.477-0.035 0.723-0.566 9.374-3.75 15.334-7.227 21.934-1.181 2.242-2.471 4.938-1.802 5.963 1.376 2.127 2.978 2.883 4.698 2.587 3.237 0.598 7.025-3.18 10.553-8.978C66.443 57.977 68.347 48.69 67.792 39.664zM8.467 36.68c-0.54 3.211-0.153 5.605-0.153 5.605l-3.017-0.254C4.9 40.781 5 38.387 5.432 36.172 5.585 35.387 8.601 35.881 8.467 36.68zM10.545 27.711c-0.036 0.096-0.065 0.192-0.097 0.291-0.005 0.016-0.011 0.027-0.019 0.048-0.024 0.075-0.055 0.15-0.076 0.228-0.002 0.021-0.011 0.026-0.013 0.042-0.056 0.176-0.108 0.35-0.154 0.505 0 0.016-0.008 0.032-0.01 0.038-0.024 0.075-0.041 0.139-0.059 0.216 0 0.011-0.008 0.011-0.008 0.021-0.02 0.075-0.042 0.133-0.06 0.213 0 0.011 0 0.011-0.005 0.016-0.014 0.067-0.027 0.136-0.04 0.19-0.005 0.005-0.011 0.021-0.011 0.027-0.032 0.12-0.058 0.237-0.079 0.344-0.002 0.011-0.002 0.021-0.002 0.021-0.011 0.043-0.027 0.088-0.029 0.125-0.005 0.016-0.005 0.021-0.005 0.021-0.019 0.091-0.032 0.171-0.048 0.232 0 0 0 0.016 0 0.021-0.008 0.032-0.008 0.048-0.013 0.075H9.812c-0.005 0.032-0.008 0.043-0.008 0.053 0 0.011 0 0.011 0 0.021-0.009 0.005-0.009 0.016-0.009 0.027l0 0c-0.003 0.011-0.003 0.016-0.003 0.016l-2.789-1.234c0-1.325 0.811-3.556 1.875-5.52 0.019-0.027 0.047-0.059 0.068-0.075 0 0 0.013-0.01 0.019-0.016 0.021-0.016 0.056-0.038 0.089-0.048h0.011c0.035-0.021 0.067-0.027 0.104-0.027 0.011 0 0.014 0 0.021 0 0.047-0.01 0.087-0.01 0.138-0.01 0.005 0 0.008 0 0.016 0 0.044 0 0.098 0.01 0.151 0.01 0 0.005 0 0.005 0.005 0.005 0.058 0 0.119 0.021 0.179 0.032l0.005 0.005c0.127 0.032 0.255 0.064 0.385 0.123l0 0c0.214 0.088 0.429 0.189 0.629 0.307h0.005c0.048 0.04 0.091 0.067 0.133 0.099 0.007 0 0.012 0 0.015 0.005 0.048 0.032 0.093 0.054 0.133 0.091l0 0c0.089 0.07 0.176 0.136 0.247 0.201 0.009 0 0.018 0.011 0.02 0.016 0.035 0.021 0.056 0.053 0.087 0.075 0.007 0.011 0.011 0.021 0.021 0.026 0.022 0.021 0.045 0.048 0.064 0.075 0.011 0.011 0.019 0.011 0.024 0.032 0.024 0.024 0.045 0.045 0.062 0.078 0 0 0.011 0.005 0.014 0.011 0.025 0.032 0.041 0.059 0.057 0.096 0 0 0.003 0.011 0.008 0.021 0.013 0.026 0.024 0.048 0.029 0.064 0.002 0.011 0.011 0.027 0.011 0.032 0.008 0.024 0.008 0.04 0.011 0.061 0 0.011 0 0.016 0.008 0.032 0 0.016 0 0.038-0.008 0.054 0 0.005 0 0.021-0.003 0.026-0.005 0.032-0.008 0.043-0.024 0.075-0.051 0.104-0.103 0.206-0.156 0.308-0.013 0.026-0.024 0.066-0.043 0.099-0.036 0.064-0.068 0.139-0.1 0.214-0.017 0.029-0.035 0.067-0.045 0.104l-0.138 0.292c-0.04 0.085-0.083 0.182-0.12 0.275l-0.005 0.005c-0.042 0.096-0.079 0.198-0.119 0.292-0.011 0.021-0.019 0.053-0.024 0.069-0.033 0.069-0.063 0.144-0.089 0.216-0.011 0.027-0.019 0.048-0.029 0.08-0.027 0.064-0.058 0.134-0.079 0.206-0.011 0.016-0.019 0.038-0.021 0.07-0.035 0.08-0.067 0.155-0.096 0.238L10.545 27.711 10.545 27.711zM18.762 15.721c-2.375 2.108-3.536 4.2-3.536 4.2l-2.167-2.209c0.466-1.234 2.002-3.003 3.682-4.416C17.345 12.792 19.353 15.208 18.762 15.721zM63.256 36.012c0.423 2.22 0.53 4.608 0.132 5.875l-3.018 0.232c0 0 0.389-2.394-0.151-5.608C60.086 35.715 63.103 35.219 63.256 36.012zM60.034 24.324c1.065 1.963 1.879 4.194 1.879 5.52l-2.792 1.229c0 0-0.349-2.402-1.82-5.271C56.94 25.09 59.652 23.624 60.034 24.324zM53.917 19.274c0 0-1.157-2.092-3.532-4.194-0.589-0.529 1.42-2.934 2.016-2.426 0.008 0.005 0.011 0.005 0.016 0.005l3.536 4.528L53.917 19.274z" fill="#000000" data-fill-palette-color="accent"></path></svg></g></svg></g><g id="text-0"><path d="M2.389 67.951l-0.813-0.274 0.955-2.829 13.156 1.701-11.521-6.545 0.967-2.866 0.814 0.275c-0.06 0.408-0.063 0.674-0.007 0.798v0c0.079 0.16 0.33 0.312 0.753 0.455v0l13.263 4.477c0.391 0.132 0.679 0.163 0.865 0.091v0c0.19-0.083 0.365-0.291 0.527-0.623v0l0.813 0.275-1.089 3.226-0.813-0.275c0.067-0.406 0.051-0.692-0.048-0.859v0c-0.111-0.192-0.349-0.35-0.715-0.473v0l-12.884-4.349-0.029 0.085 12.202 7.027-0.354 1.05-14.255-1.913-0.029 0.085 13.178 4.448c0.372 0.126 0.665 0.144 0.878 0.054v0c0.158-0.073 0.341-0.303 0.548-0.69v0l0.814 0.275-0.961 2.847-0.814-0.274c0.065-0.379 0.049-0.644-0.047-0.796v0c-0.098-0.167-0.346-0.317-0.744-0.451v0l-13.244-4.471c-0.372-0.126-0.639-0.167-0.801-0.123v0c-0.198 0.067-0.386 0.281-0.565 0.642z" fill="#000000" data-fill-palette-color="primary"></path><path d="M20.997 47.751l0.28-0.565-0.403-0.241c-1.926-1.15-3.258-1.107-3.995 0.128v0c-0.403 0.674-0.452 1.316-0.148 1.923v0c0.383-0.213 0.766-0.206 1.149 0.023v0c0.177 0.106 0.309 0.242 0.395 0.41v0c0.172 0.335 0.147 0.689-0.074 1.06v0c-0.164 0.274-0.395 0.447-0.693 0.517v0c-0.309 0.063-0.621 0.001-0.935-0.186v0c-0.537-0.321-0.893-0.874-1.067-1.66v0c-0.217-0.936-0.066-1.838 0.453-2.707v0c0.682-1.143 1.635-1.726 2.857-1.748v0c0.909-0.016 1.886 0.288 2.932 0.913v0l5.401 3.224c0.697 0.416 1.104 0.527 1.22 0.333v0c0.113-0.189-0.051-0.531-0.492-1.027v0l0.854-0.281c0.444 0.49 0.735 0.892 0.872 1.207v0c0.201 0.469 0.185 0.897-0.047 1.286v0c-0.454 0.76-1.293 0.841-2.516 0.242v0c0.379 0.56 0.599 1.133 0.66 1.72v0c0.061 0.664-0.071 1.268-0.395 1.811v0c-0.58 0.972-1.482 1.398-2.706 1.28v0c-0.682-0.066-1.385-0.315-2.111-0.749v0c-1.103-0.658-1.809-1.56-2.118-2.706v0c-0.194-0.674-0.199-1.46-0.012-2.356v0c0.139-0.661 0.352-1.278 0.639-1.851zM24.792 49.284l-2.495-1.489-0.213 0.454c-1.041 2.185-0.638 3.829 1.208 4.93v0c0.497 0.297 0.949 0.481 1.356 0.554v0c0.719 0.119 1.241-0.092 1.565-0.636v0c0.31-0.52 0.327-1.177 0.049-1.971v0c-0.294-0.819-0.784-1.433-1.47-1.842z" fill="#000000" data-fill-palette-color="primary"></path><path d="M34.025 39.623l-0.079-0.077c-0.854 0.388-1.555 0.318-2.101-0.208v0c-0.527-0.508-0.612-1.173-0.256-1.994v0c-1.052 0.123-2.06-0.28-3.023-1.208v0c-0.628-0.605-1.043-1.301-1.246-2.089v0c-0.301-1.242-0.03-2.299 0.81-3.171v0c0.638-0.661 1.39-0.953 2.258-0.875v0c-0.214-0.613-0.236-1.198-0.067-1.757v0c0.098-0.312 0.237-0.562 0.417-0.749v0c0.222-0.23 0.504-0.346 0.848-0.347v0c0.405 0.002 0.761 0.151 1.067 0.446v0c0.518 0.499 0.559 0.974 0.125 1.424v0c-0.148 0.153-0.33 0.241-0.546 0.265v0c-0.272 0.033-0.526-0.063-0.761-0.29v0c-0.077-0.074-0.154-0.176-0.231-0.307v0c-0.212 0.249-0.202 0.689 0.031 1.32v0c0.803 0.164 1.514 0.544 2.132 1.14v0c0.767 0.739 1.219 1.508 1.356 2.306v0c0.164 0.99-0.17 1.917-1.001 2.779v0c-0.37 0.383-0.746 0.668-1.129 0.854v0c-0.322 0.42-0.317 0.79 0.014 1.108v0c0.206 0.199 0.447 0.251 0.723 0.157v0c0.29-0.109 0.644-0.332 1.061-0.669v0l1.481-1.235c0.802-0.669 1.541-1.043 2.218-1.121v0c0.822-0.105 1.621 0.217 2.397 0.966v0c1.625 1.566 1.377 3.449-0.743 5.648v0c-0.845 0.877-1.716 1.397-2.613 1.559v0c-1.018 0.183-1.923-0.106-2.713-0.868v0c-0.848-0.818-0.991-1.82-0.429-3.007zM28.886 31.632v0c-0.43 0.446-0.551 1.003-0.365 1.673v0c0.166 0.604 0.547 1.193 1.141 1.766v0c0.46 0.443 0.915 0.748 1.365 0.914v0c0.749 0.269 1.398 0.118 1.948-0.453v0c0.448-0.465 0.591-1.016 0.429-1.653v0c-0.147-0.557-0.503-1.109-1.069-1.654v0c-0.695-0.67-1.408-1.029-2.138-1.076v0c-0.533-0.033-0.97 0.128-1.311 0.483zM36.048 38.315v0c-1.293 1.342-1.516 2.422-0.667 3.239v0c0.359 0.346 0.803 0.543 1.331 0.59v0c0.872 0.083 1.657-0.238 2.355-0.961v0c0.476-0.494 0.784-1.01 0.925-1.55v0c0.206-0.828 0.017-1.523-0.568-2.087v0c-0.911-0.878-2.036-0.622-3.376 0.769z" fill="#000000" data-fill-palette-color="primary"></path><path d="M54.959 26.742l-1.941 1.265-1.081-1.237c0.185 0.722 0.158 1.387-0.081 1.995v0c-0.208 0.509-0.555 0.922-1.04 1.239v0c-0.786 0.513-1.666 0.558-2.641 0.136v0c-0.754-0.327-1.543-1.123-2.368-2.388v0l-3.589-5.504c-0.215-0.329-0.45-0.513-0.706-0.552v0c-0.195-0.032-0.557 0.065-1.086 0.291v0l-0.463-0.711c0.762-0.513 1.469-1.165 2.121-1.956v0l4.92 7.544c1.218 1.868 2.295 2.496 3.232 1.885v0c0.385-0.251 0.627-0.695 0.728-1.333v0c0.105-0.68 0.007-1.47-0.294-2.371v0l-3.802-5.829c-0.233-0.357-0.481-0.561-0.744-0.611v0c-0.193-0.041-0.515 0.058-0.964 0.295v0l-0.464-0.711c0.784-0.527 1.472-1.167 2.063-1.918v0l5.803 8.899c0.356 0.546 0.666 0.881 0.929 1.003v0c0.263 0.123 0.596 0.072 0.999-0.15v0z" fill="#000000" data-fill-palette-color="primary"></path><path d="M62.998 23.492l-1.607-4.174 0.727-0.28c0.409 0.784 0.973 1.416 1.692 1.895v0c0.746 0.512 1.486 0.626 2.218 0.344v0c0.553-0.213 0.912-0.622 1.079-1.228v0c0.138-0.495 0.103-1.01-0.102-1.544v0c-0.332-0.863-1.255-1.482-2.768-1.855v0l-0.758-0.19c-1.138-0.289-1.989-0.59-2.551-0.901v0c-0.728-0.39-1.251-0.998-1.569-1.825v0c-0.27-0.702-0.306-1.398-0.108-2.087v0c0.268-0.952 0.875-1.61 1.819-1.974v0c0.658-0.253 1.412-0.205 2.26 0.147v0c0.144 0.059 0.256 0.073 0.337 0.041v0c0.137-0.053 0.155-0.284 0.054-0.694v0l0.652-0.251 1.263 3.28-0.709 0.272c-1.244-1.582-2.332-2.194-3.263-1.836v0c-0.472 0.182-0.794 0.53-0.967 1.047v0c-0.126 0.377-0.092 0.817 0.101 1.319v0c0.21 0.547 0.543 0.939 0.999 1.178v0c0.367 0.194 0.948 0.377 1.742 0.549v0l0.813 0.168c1.107 0.244 1.906 0.514 2.398 0.81v0c0.8 0.484 1.38 1.195 1.741 2.133v0c0.383 0.994 0.375 1.92-0.021 2.78v0c-0.35 0.741-0.966 1.281-1.848 1.62v0c-0.919 0.354-1.71 0.337-2.372-0.049v0c-0.294-0.172-0.501-0.235-0.619-0.19v0c-0.162 0.062-0.168 0.482-0.018 1.259v0z" fill="#000000" data-fill-palette-color="primary"></path><path d="M95.738 4.66l0.669-4.66 9.002 0.886-0.261 4.699-0.716-0.07c-0.045-1.309-0.197-2.21-0.456-2.704v0c-0.327-0.621-0.831-0.965-1.514-1.031v0l-0.894-0.088-1.448 14.715c-0.039 0.397 0.02 0.681 0.177 0.851v0c0.164 0.17 0.508 0.311 1.032 0.422v0l-0.084 0.855-4.193-0.413 0.084-0.854c0.523-0.009 0.884-0.08 1.085-0.215v0c0.193-0.128 0.31-0.394 0.349-0.798v0l1.448-14.716-0.904-0.089c-0.742-0.073-1.335 0.21-1.779 0.848v0c-0.32 0.47-0.611 1.281-0.872 2.433v0z" fill="#000000" data-fill-palette-color="primary"></path><path d="M116.576 22.378l-4.106-1.323 0.263-0.817c0.534 0.102 0.917 0.096 1.15-0.018v0c0.224-0.11 0.417-0.415 0.578-0.915v0l2.589-8.041c0.141-0.437 0.145-0.765 0.012-0.982v0c-0.116-0.184-0.418-0.373-0.909-0.565v0l0.261-0.808c0.779 0.251 1.699 0.38 2.76 0.386v0l-0.784 2.433c0.578-0.667 1.165-1.121 1.761-1.363v0c0.679-0.285 1.301-0.336 1.865-0.155v0c0.304 0.098 0.558 0.264 0.763 0.497v0c0.43 0.488 0.55 1.027 0.36 1.617v0c-0.078 0.241-0.202 0.442-0.373 0.603v0c-0.331 0.334-0.728 0.426-1.19 0.278v0c-0.253-0.082-0.457-0.231-0.611-0.449v0c-0.218-0.301-0.272-0.622-0.162-0.964v0c0.075-0.234 0.246-0.438 0.512-0.612v0c-0.417 0.013-0.889 0.2-1.418 0.561v0c-0.757 0.526-1.43 1.151-2.021 1.877v0l-1.98 6.149c-0.149 0.463-0.148 0.83 0.001 1.102v0c0.11 0.224 0.424 0.455 0.942 0.691v0z" fill="#000000" data-fill-palette-color="primary"></path><path d="M135.739 22.909l0.563 0.285 0.244-0.401c1.166-1.916 1.135-3.248-0.092-3.996v0c-0.671-0.408-1.312-0.463-1.922-0.164v0c0.21 0.385 0.199 0.768-0.033 1.149v0c-0.107 0.176-0.245 0.307-0.414 0.391v0c-0.337 0.169-0.69 0.141-1.059-0.084v0c-0.273-0.166-0.443-0.398-0.511-0.697v0c-0.061-0.31 0.004-0.621 0.194-0.933v0c0.325-0.534 0.882-0.885 1.67-1.053v0c0.937-0.209 1.838-0.05 2.702 0.476v0c1.137 0.692 1.712 1.65 1.723 2.872v0c0.008 0.909-0.305 1.883-0.938 2.924v0l-3.27 5.373c-0.422 0.694-0.537 1.099-0.344 1.217v0c0.188 0.114 0.531-0.047 1.031-0.483v0l0.274 0.856c-0.494 0.44-0.898 0.727-1.215 0.862v0c-0.47 0.197-0.899 0.178-1.285-0.057v0c-0.756-0.46-0.83-1.3-0.221-2.519v0c-0.563 0.374-1.138 0.589-1.725 0.645v0c-0.665 0.055-1.267-0.082-1.807-0.411v0c-0.967-0.588-1.386-1.494-1.257-2.716v0c0.072-0.681 0.327-1.383 0.767-2.105v0c0.668-1.097 1.576-1.795 2.724-2.094v0c0.676-0.189 1.461-0.186 2.356 0.008v0c0.66 0.145 1.275 0.363 1.845 0.655zM134.174 26.691l1.511-2.482-0.453-0.217c-2.176-1.059-3.823-0.671-4.94 1.165v0c-0.301 0.495-0.489 0.945-0.565 1.351v0c-0.126 0.718 0.082 1.242 0.621 1.571v0c0.517 0.315 1.174 0.337 1.971 0.066v0c0.821-0.287 1.44-0.772 1.855-1.454z" fill="#000000" data-fill-palette-color="primary"></path><path d="M148.473 39.418l0.146 0.929c-2.159 1.266-3.868 1.295-5.125 0.086v0c-0.969-0.932-1.262-2.178-0.879-3.739v0c0.335-1.395 1.179-2.796 2.531-4.202v0c1.204-1.252 2.473-2.092 3.806-2.518v0c1.726-0.556 3.119-0.325 4.18 0.695v0c0.672 0.646 1.016 1.383 1.032 2.211v0c0.021 0.823-0.197 1.473-0.654 1.948v0c-0.249 0.259-0.524 0.401-0.825 0.426v0c-0.338 0.025-0.635-0.084-0.889-0.329v0c-0.355-0.341-0.455-0.742-0.299-1.202v0c0.039-0.147 0.117-0.28 0.232-0.4v0c0.314-0.326 0.69-0.444 1.13-0.354v0c0.184-0.479 0.033-0.952-0.451-1.417v0c-0.485-0.466-1.179-0.584-2.083-0.355v0c-1.246 0.307-2.541 1.159-3.884 2.555v0c-1.163 1.209-1.902 2.377-2.219 3.504v0c-0.299 1.07-0.178 1.865 0.365 2.386v0c0.84 0.807 2.135 0.733 3.886-0.224z" fill="#000000" data-fill-palette-color="primary"></path><path d="M161.575 52.801l-3.491-5.34-0.376 0.246c-1.309 0.856-2.213 1.773-2.711 2.75v0c-0.502 0.972-0.528 1.801-0.08 2.487v0c0.623 0.953 1.897 1.217 3.823 0.792v0l-0.211 0.973c-2.355 0.522-3.979 0.1-4.871-1.264v0c-0.565-0.864-0.674-1.858-0.328-2.983v0c0.488-1.528 1.702-2.926 3.64-4.194v0c1.71-1.118 3.345-1.714 4.904-1.786v0c1.507-0.055 2.574 0.397 3.2 1.355v0c0.627 0.958 0.6 2.121-0.081 3.488v0c-0.624 1.235-1.63 2.306-3.017 3.213v0zM159.075 46.896l2.524 3.861c1.12-0.78 1.907-1.553 2.361-2.319v0c0.478-0.79 0.542-1.452 0.192-1.986v0c-0.306-0.468-0.928-0.678-1.866-0.629v0c-1.02 0.046-2.09 0.404-3.211 1.073z" fill="#000000" data-fill-palette-color="primary"></path><path d="M168.596 69.66l-2.209-5.985-0.422 0.155c-1.467 0.542-2.553 1.233-3.257 2.076v0c-0.706 0.835-0.918 1.637-0.634 2.405v0c0.394 1.068 1.577 1.61 3.549 1.627v0l-0.423 0.901c-2.412-0.018-3.9-0.792-4.465-2.321v0c-0.357-0.968-0.242-1.961 0.347-2.981v0c0.817-1.38 2.313-2.471 4.486-3.273v0c1.917-0.708 3.643-0.923 5.179-0.646v0c1.481 0.283 2.42 0.962 2.816 2.036v0c0.396 1.074 0.11 2.201-0.859 3.383v0c-0.884 1.064-2.104 1.884-3.658 2.457v0zM167.479 63.346l1.597 4.328c1.266-0.51 2.206-1.088 2.82-1.733v0c0.642-0.663 0.853-1.294 0.631-1.893v0c-0.194-0.525-0.753-0.868-1.679-1.03v0c-1.004-0.183-2.127-0.073-3.369 0.328z" fill="#000000" data-fill-palette-color="primary"></path><path d="M2.942 92.705c0-3.792 3.074-6.865 6.865-6.866 3.792 0 6.865 3.074 6.866 6.866 0 3.792-3.074 6.865-6.866 6.865-3.792 0-6.865-3.074-6.865-6.865z" fill="#000000" data-fill-palette-color="primary"></path><path d="M164.694 92.705c0-3.792 3.074-6.865 6.865-6.866 3.792 0 6.865 3.074 6.865 6.866 0 3.792-3.074 6.865-6.865 6.865-3.792 0-6.865-3.074-6.865-6.865z" fill="#000000" data-fill-palette-color="primary"></path></g><g id="text-1"><path d="M22.715 110.597l0.814-0.274 0.954 2.828-11.496 6.62 13.131-1.776 0.968 2.866-0.814 0.275c-0.199-0.361-0.359-0.574-0.479-0.639v0c-0.16-0.079-0.452-0.048-0.874 0.094v0l-13.263 4.477c-0.391 0.132-0.639 0.282-0.744 0.451v0c-0.1 0.181-0.114 0.453-0.041 0.815v0l-0.813 0.275-1.089-3.226 0.813-0.275c0.193 0.363 0.379 0.582 0.559 0.655v0c0.204 0.086 0.49 0.067 0.855-0.057v0l12.885-4.349-0.029-0.085-13.965 1.805-0.354-1.05 12.498-7.117-0.029-0.085-13.177 4.448c-0.372 0.126-0.616 0.289-0.731 0.489v0c-0.082 0.154-0.088 0.448-0.019 0.881v0l-0.813 0.275-0.962-2.848 0.814-0.274c0.178 0.34 0.351 0.542 0.52 0.604v0c0.179 0.073 0.467 0.042 0.865-0.092v0l13.244-4.47c0.372-0.126 0.609-0.255 0.712-0.388v0c0.117-0.173 0.137-0.457 0.06-0.853z" fill="#89939e" data-fill-palette-color="secondary"></path><path d="M24.209 135.741l0.365 0.514 0.403-0.24c1.926-1.15 2.521-2.342 1.784-3.577v0c-0.403-0.674-0.943-1.022-1.623-1.043v0c0.006 0.438-0.183 0.772-0.566 1.001v0c-0.177 0.106-0.36 0.157-0.548 0.153v0c-0.377-0.008-0.676-0.197-0.897-0.569v0c-0.164-0.274-0.206-0.559-0.127-0.855v0c0.091-0.302 0.293-0.547 0.608-0.735v0c0.537-0.321 1.193-0.371 1.968-0.151v0c0.926 0.253 1.649 0.814 2.167 1.683v0c0.682 1.143 0.743 2.258 0.183 3.344v0c-0.417 0.807-1.149 1.523-2.195 2.148v0l-5.402 3.224c-0.697 0.416-0.988 0.721-0.872 0.916v0c0.113 0.189 0.492 0.207 1.137 0.054v0l-0.158 0.884c-0.642 0.158-1.134 0.223-1.476 0.196v0c-0.508-0.046-0.878-0.263-1.11-0.652v0c-0.454-0.76-0.127-1.537 0.981-2.33v0c-0.673 0.068-1.281-0.01-1.826-0.235v0c-0.614-0.262-1.082-0.664-1.407-1.207v0c-0.58-0.972-0.527-1.968 0.158-2.989v0c0.381-0.569 0.935-1.07 1.661-1.503v0c1.103-0.658 2.232-0.852 3.387-0.58v0c0.686 0.149 1.379 0.518 2.079 1.107v0c0.516 0.436 0.958 0.917 1.326 1.442zM21.059 138.354l2.495-1.49-0.299-0.403c-1.429-1.953-3.067-2.379-4.913-1.276v0c-0.497 0.297-0.874 0.607-1.131 0.93v0c-0.447 0.577-0.508 1.136-0.183 1.68v0c0.31 0.52 0.881 0.846 1.711 0.978v0c0.86 0.13 1.634-0.01 2.32-0.419z" fill="#89939e" data-fill-palette-color="secondary"></path><path d="M29.054 150.578l0.079-0.077c-0.356-0.868-0.261-1.565 0.286-2.092v0c0.527-0.508 1.194-0.569 2.002-0.182v0c-0.084-1.056 0.355-2.048 1.318-2.977v0c0.628-0.605 1.339-0.995 2.133-1.168v0c1.252-0.255 2.299 0.054 3.139 0.926v0c0.638 0.661 0.901 1.424 0.792 2.288v0c0.62-0.191 1.206-0.192 1.758-0.003v0c0.309 0.109 0.553 0.257 0.733 0.445v0c0.222 0.23 0.327 0.517 0.316 0.86v0c-0.017 0.405-0.179 0.755-0.485 1.05v0c-0.518 0.499-0.993 0.523-1.428 0.073v0c-0.148-0.153-0.229-0.338-0.244-0.556v0c-0.023-0.273 0.083-0.523 0.318-0.749v0c0.077-0.074 0.182-0.147 0.314-0.22v0c-0.241-0.221-0.681-0.227-1.32-0.018v0c-0.194 0.797-0.599 1.493-1.217 2.089v0c-0.767 0.739-1.551 1.163-2.354 1.271v0c-0.996 0.128-1.909-0.24-2.741-1.103v0c-0.37-0.383-0.64-0.77-0.812-1.159v0c-0.408-0.337-0.777-0.346-1.108-0.027v0c-0.206 0.199-0.267 0.438-0.182 0.717v0c0.098 0.294 0.308 0.655 0.629 1.085v0l1.18 1.525c0.639 0.826 0.986 1.579 1.039 2.258v0c0.074 0.825-0.277 1.612-1.053 2.36v0c-1.625 1.566-3.497 1.249-5.618-0.95v0c-0.845-0.877-1.333-1.766-1.462-2.668v0c-0.146-1.024 0.176-1.917 0.967-2.68v0c0.848-0.818 1.855-0.924 3.021-0.318zM37.228 145.735v0c-0.43-0.446-0.983-0.588-1.658-0.426v0c-0.61 0.144-1.212 0.503-1.807 1.076v0c-0.46 0.443-0.781 0.887-0.963 1.331v0c-0.296 0.738-0.169 1.393 0.38 1.963v0c0.448 0.465 0.994 0.628 1.637 0.489v0c0.563-0.126 1.127-0.462 1.692-1.007v0c0.695-0.67 1.08-1.369 1.154-2.097v0c0.052-0.531-0.093-0.974-0.435-1.329zM30.287 152.648v0c-1.293-1.342-2.364-1.604-3.212-0.786v0c-0.359 0.346-0.572 0.783-0.639 1.309v0c-0.115 0.869 0.177 1.665 0.875 2.388v0c0.476 0.494 0.981 0.821 1.514 0.981v0c0.819 0.236 1.522 0.073 2.106-0.491v0c0.911-0.878 0.696-2.011-0.644-3.401z" fill="#89939e" data-fill-palette-color="secondary"></path><path d="M47.981 169.367l-1.941-1.265 0.697-1.489c-0.586 0.46-1.206 0.704-1.859 0.731v0c-0.55 0.015-1.068-0.136-1.553-0.452v0c-0.786-0.513-1.183-1.3-1.19-2.362v0c-0.005-0.822 0.406-1.865 1.232-3.13v0l3.588-5.503c0.215-0.329 0.288-0.619 0.221-0.869v0c-0.05-0.192-0.285-0.484-0.704-0.877v0l0.464-0.711c0.777 0.491 1.658 0.875 2.645 1.153v0l-4.919 7.544c-1.218 1.868-1.359 3.107-0.422 3.718v0c0.385 0.251 0.889 0.294 1.513 0.129v0c0.665-0.178 1.348-0.587 2.051-1.226v0l3.801-5.829c0.233-0.357 0.319-0.666 0.259-0.928v0c-0.041-0.193-0.26-0.448-0.658-0.763v0l0.464-0.711c0.799 0.505 1.661 0.877 2.586 1.115v0l-5.803 8.899c-0.356 0.546-0.538 0.965-0.544 1.254v0c-0.006 0.29 0.174 0.574 0.541 0.853v0z" fill="#89939e" data-fill-palette-color="secondary"></path><path d="M58.165 174.472l1.607-4.174 0.726 0.28c-0.222 0.856-0.227 1.703-0.015 2.54v0c0.211 0.88 0.682 1.461 1.416 1.743v0c0.553 0.213 1.094 0.15 1.623-0.188v0c0.434-0.275 0.754-0.68 0.96-1.214v0c0.332-0.863 0.062-1.941-0.81-3.233v0l-0.435-0.648c-0.651-0.978-1.08-1.771-1.288-2.379v0c-0.278-0.778-0.259-1.58 0.059-2.406v0c0.27-0.702 0.71-1.242 1.32-1.621v0c0.837-0.526 1.728-0.608 2.672-0.245v0c0.658 0.253 1.185 0.795 1.579 1.625v0c0.067 0.14 0.141 0.226 0.222 0.256v0c0.137 0.053 0.305-0.107 0.505-0.479v0l0.653 0.251-1.263 3.28-0.708-0.273c0.138-2.008-0.259-3.191-1.19-3.55v0c-0.472-0.182-0.945-0.139-1.419 0.128v0c-0.346 0.195-0.616 0.544-0.81 1.047v0c-0.21 0.547-0.227 1.061-0.048 1.543v0c0.142 0.39 0.45 0.915 0.924 1.576v0l0.49 0.67c0.657 0.923 1.069 1.66 1.236 2.209v0c0.269 0.895 0.223 1.812-0.138 2.75v0c-0.383 0.994-1.009 1.676-1.879 2.047v0c-0.756 0.315-1.575 0.303-2.458-0.036v0c-0.919-0.354-1.495-0.896-1.727-1.628v0c-0.103-0.325-0.214-0.51-0.332-0.556v0c-0.162-0.062-0.447 0.245-0.857 0.922v0z" fill="#89939e" data-fill-palette-color="secondary"></path><path d="M94.39 167.051l-0.251-4.7 9.002-0.886 0.659 4.661-0.715 0.07c-0.299-1.275-0.624-2.129-0.975-2.563v0c-0.442-0.545-1.003-0.784-1.685-0.717v0l-0.895 0.088 1.448 14.716c0.039 0.397 0.152 0.664 0.339 0.8v0c0.194 0.135 0.559 0.206 1.095 0.213v0l0.084 0.855-4.193 0.412-0.084-0.855c0.511-0.11 0.852-0.251 1.022-0.421v0c0.165-0.163 0.227-0.447 0.187-0.851v0l-1.448-14.716-0.904 0.089c-0.742 0.073-1.268 0.466-1.58 1.178v0c-0.223 0.524-0.35 1.375-0.38 2.556v0z" fill="#89939e" data-fill-palette-color="secondary"></path><path d="M120.492 175.191l-4.106 1.322-0.263-0.817c0.493-0.229 0.8-0.457 0.923-0.685v0c0.118-0.22 0.096-0.58-0.065-1.081v0l-2.59-8.04c-0.141-0.437-0.329-0.705-0.563-0.805v0c-0.201-0.082-0.557-0.058-1.068 0.072v0l-0.26-0.808c0.779-0.251 1.601-0.684 2.467-1.298v0l0.783 2.433c0.081-0.879 0.292-1.591 0.634-2.134v0c0.385-0.628 0.86-1.032 1.424-1.214v0c0.304-0.098 0.607-0.112 0.91-0.042v0c0.634 0.145 1.046 0.513 1.236 1.102v0c0.078 0.241 0.094 0.477 0.05 0.708v0c-0.074 0.464-0.343 0.771-0.805 0.92v0c-0.253 0.082-0.506 0.079-0.758-0.007v0c-0.352-0.117-0.584-0.347-0.694-0.689v0c-0.075-0.234-0.056-0.499 0.058-0.796v0c-0.331 0.253-0.606 0.681-0.824 1.283v0c-0.308 0.868-0.49 1.77-0.545 2.704v0l1.98 6.149c0.149 0.463 0.364 0.76 0.645 0.894v0c0.22 0.118 0.609 0.122 1.168 0.012v0z" fill="#89939e" data-fill-palette-color="secondary"></path><path d="M133.795 159.305l0.511-0.37-0.244-0.4c-1.166-1.916-2.364-2.5-3.592-1.753v0c-0.671 0.408-1.014 0.952-1.029 1.631v0c0.438-0.01 0.773 0.176 1.006 0.557v0c0.107 0.176 0.16 0.359 0.157 0.547v0c-0.004 0.377-0.191 0.678-0.561 0.903v0c-0.273 0.166-0.557 0.211-0.853 0.134v0c-0.303-0.088-0.55-0.289-0.741-0.602v0c-0.325-0.534-0.381-1.19-0.168-1.966v0c0.245-0.929 0.8-1.656 1.664-2.182v0c1.137-0.692 2.251-0.763 3.343-0.211v0c0.811 0.41 1.533 1.136 2.167 2.176v0l3.27 5.373c0.422 0.694 0.73 0.982 0.923 0.864v0c0.188-0.114 0.202-0.493 0.044-1.137v0l0.887 0.15c0.164 0.641 0.233 1.132 0.208 1.475v0c-0.041 0.508-0.255 0.88-0.642 1.115v0c-0.756 0.46-1.536 0.14-2.339-0.961v0c0.074 0.672 0.001 1.281-0.219 1.828v0c-0.256 0.616-0.655 1.088-1.195 1.417v0c-0.967 0.588-1.963 0.544-2.99-0.131v0c-0.572-0.377-1.078-0.926-1.518-1.648v0c-0.668-1.097-0.871-2.225-0.609-3.382v0c0.143-0.687 0.506-1.383 1.09-2.089v0c0.432-0.52 0.908-0.966 1.43-1.338zM136.435 162.432l-1.511-2.482-0.401 0.303c-1.941 1.446-2.352 3.087-1.234 4.924v0c0.301 0.495 0.615 0.869 0.941 1.122v0c0.58 0.442 1.141 0.498 1.68 0.169v0c0.517-0.315 0.839-0.888 0.964-1.72v0c0.122-0.862-0.024-1.633-0.44-2.316z" fill="#89939e" data-fill-palette-color="secondary"></path><path d="M152.179 149.845l0.934-0.109c1.181 2.208 1.142 3.916-0.115 5.125v0c-0.969 0.932-2.226 1.176-3.771 0.731v0c-1.381-0.39-2.748-1.287-4.099-2.694v0c-1.204-1.252-1.993-2.553-2.367-3.902v0c-0.488-1.747-0.202-3.13 0.858-4.149v0c0.672-0.646 1.422-0.961 2.25-0.944v0c0.824 0.011 1.464 0.255 1.921 0.729v0c0.249 0.259 0.38 0.539 0.393 0.841v0c0.012 0.339-0.109 0.631-0.363 0.876v0c-0.355 0.341-0.759 0.425-1.213 0.251v0c-0.145-0.045-0.275-0.128-0.39-0.247v0c-0.314-0.326-0.417-0.707-0.31-1.143v0c-0.472-0.202-0.95-0.07-1.434 0.395v0c-0.485 0.466-0.63 1.155-0.436 2.068v0c0.258 1.257 1.058 2.584 2.401 3.98v0c1.163 1.209 2.301 1.994 3.413 2.355v0c1.057 0.341 1.857 0.251 2.4-0.271v0c0.84-0.807 0.816-2.105-0.072-3.892z" fill="#89939e" data-fill-palette-color="secondary"></path><path d="M161.37 132.474l-3.491 5.34 0.376 0.246c1.309 0.856 2.511 1.316 3.606 1.38v0c1.092 0.07 1.862-0.238 2.31-0.923v0c0.623-0.953 0.354-2.226-0.807-3.82v0l0.976-0.197c1.422 1.948 1.687 3.604 0.795 4.969v0c-0.565 0.864-1.432 1.362-2.601 1.497v0c-1.595 0.166-3.363-0.385-5.301-1.653v0c-1.71-1.118-2.911-2.377-3.604-3.776v0c-0.655-1.359-0.669-2.517-0.042-3.475v0c0.627-0.958 1.703-1.4 3.229-1.325v0c1.382 0.076 2.766 0.568 4.153 1.475v0zM156.964 137.133l2.525-3.861c-1.164-0.713-2.188-1.124-3.072-1.233v0c-0.915-0.121-1.547 0.086-1.897 0.621v0c-0.306 0.468-0.248 1.122 0.173 1.962v0c0.451 0.915 1.208 1.752 2.271 2.511z" fill="#89939e" data-fill-palette-color="secondary"></path><path d="M168.366 115.664l-2.209 5.985 0.421 0.156c1.467 0.542 2.742 0.721 3.824 0.539v0c1.08-0.176 1.761-0.648 2.045-1.416v0c0.394-1.068-0.153-2.249-1.64-3.543v0l0.907-0.411c1.822 1.581 2.45 3.136 1.885 4.666v0c-0.357 0.968-1.091 1.648-2.2 2.04v0c-1.518 0.518-3.364 0.376-5.537-0.426v0c-1.917-0.708-3.369-1.666-4.356-2.874v0c-0.942-1.178-1.214-2.304-0.818-3.378v0c0.396-1.074 1.347-1.745 2.851-2.013v0c1.364-0.234 2.823-0.065 4.377 0.509v0zM165.113 121.19l1.597-4.328c-1.294-0.435-2.384-0.607-3.268-0.515v0c-0.919 0.087-1.489 0.43-1.711 1.029v0c-0.194 0.525 0.009 1.149 0.607 1.874v0c0.644 0.791 1.569 1.438 2.775 1.94z" fill="#89939e" data-fill-palette-color="secondary"></path></g></svg></g></svg></g></svg></g><g></g></svg></g></svg></g></svg></g><defs></defs></svg><rect width="320" height="360" fill="none" stroke="none" visibility="hidden"></rect></g></svg></g></svg>